<svg width="21" height="14" viewBox="0 0 21 14" fill="none" xmlns="http://www.w3.org/2000/svg">
<path d="M1.39681 12.7502V1.97961H3.88752V2.80424H2.33924V11.9256H3.88752V12.7502H1.39681Z" fill="black"/>
<path d="M14.2758 3.2395H5.20306C4.98487 3.2395 4.80859 3.4097 4.80859 3.62037V12.3802C4.80859 12.5909 4.98487 12.7611 5.20306 12.7611H14.2758C14.494 12.7611 14.6703 12.5909 14.6703 12.3802V3.62037C14.6703 3.4097 14.494 3.2395 14.2758 3.2395ZM10.8057 6.08289H12.5118V6.48399H10.8057V6.08289ZM9.73942 9.39046C9.65963 9.53671 9.54568 9.66302 9.40659 9.75942C9.26113 9.85701 9.09965 9.92843 8.9283 9.97008C8.74903 10.0165 8.5641 10.0393 8.37851 10.0379H6.33715V5.97815H8.32181C8.52274 5.97815 8.70518 5.99601 8.8716 6.02933C9.03678 6.06266 9.17731 6.11979 9.29565 6.19715C9.41276 6.27451 9.50521 6.37806 9.57054 6.5066C9.63464 6.63395 9.66793 6.79344 9.66793 6.98268C9.66793 7.1874 9.61985 7.3564 9.5237 7.49328C9.42632 7.63015 9.28579 7.74084 9.09472 7.82772C9.35482 7.89914 9.54589 8.02649 9.67162 8.20502C9.79983 8.38593 9.86269 8.60254 9.86269 8.85725C9.86269 9.06434 9.82201 9.24168 9.73942 9.39046ZM13.1762 8.76203H10.9771C10.9771 8.99293 11.0597 9.21431 11.1842 9.33333C11.3099 9.45116 11.4899 9.51067 11.7253 9.51067C11.8954 9.51067 12.0397 9.46901 12.1629 9.38689C12.285 9.30476 12.3589 9.21788 12.386 9.12742H13.1232C13.0049 9.48091 12.8249 9.73323 12.5808 9.88558C12.3392 10.0379 12.0434 10.1141 11.6994 10.1141C11.4591 10.1141 11.2433 10.076 11.0498 10.0034C10.8637 9.93319 10.696 9.82607 10.5579 9.68801C10.4218 9.54622 10.3166 9.37947 10.2485 9.19764C10.1733 8.9965 10.1364 8.78464 10.1388 8.5716C10.1388 8.35141 10.177 8.1467 10.251 7.95627C10.3928 7.58611 10.6874 7.28975 11.0634 7.13622C11.2643 7.05528 11.48 7.01482 11.6982 7.0172C11.9571 7.0172 12.1814 7.06481 12.3762 7.1624C12.5637 7.2556 12.7265 7.38917 12.852 7.55279C12.9765 7.71584 13.064 7.90152 13.1195 8.11099C13.1725 8.3169 13.191 8.53351 13.1762 8.76203V8.76203ZM11.6723 7.6242C11.5392 7.6242 11.427 7.64681 11.3407 7.69085C11.2544 7.73489 11.1829 7.78964 11.1287 7.85272C11.077 7.91362 11.0389 7.98411 11.0165 8.05981C10.9968 8.12289 10.9832 8.18716 10.9783 8.25263H12.3404C12.3207 8.04672 12.2468 7.89437 12.1481 7.78726C12.0446 7.68133 11.8782 7.6242 11.6723 7.6242V7.6242ZM8.60903 7.50399C8.71628 7.42901 8.76805 7.30523 8.76805 7.13503C8.77175 7.05409 8.75449 6.97435 8.71751 6.90175C8.68423 6.84343 8.63492 6.79463 8.57451 6.76011C8.51188 6.72344 8.44233 6.69917 8.36989 6.6887C8.29099 6.67442 8.21087 6.66728 8.13197 6.66847H7.26538V7.61706H8.20347C8.36495 7.61825 8.50178 7.58016 8.60903 7.50399V7.50399ZM8.75449 8.36093C8.63368 8.27167 8.4722 8.22763 8.27127 8.22763H7.26291V9.34642H8.25155C8.344 9.34642 8.42906 9.33809 8.51165 9.32142C8.59424 9.30476 8.6682 9.2762 8.73107 9.23573C8.79394 9.19645 8.84448 9.14289 8.88269 9.07386C8.91967 9.00483 8.93816 8.91676 8.93816 8.81083C8.93816 8.60016 8.87653 8.45139 8.75449 8.36093V8.36093Z" fill="black"/>
<path d="M18.7423 1.97961V12.7502H16.2516V11.9256H17.7998V2.80424H16.2516V1.97961H18.7423Z" fill="black"/>
</svg>
