<svg width="21" height="14" viewBox="0 0 21 14" fill="none" xmlns="http://www.w3.org/2000/svg">
<path d="M1.39681 12.7502V1.97961H3.88752V2.80424H2.33924V11.9256H3.88752V12.7502H1.39681Z" fill="black"/>
<g clip-path="url(#clip0_1435_323)">
<path d="M10.1099 6.50772C9.20505 6.50772 8.46666 7.22065 8.46666 8.09425C8.46666 8.96786 9.20505 9.68079 10.1099 9.68079C11.0147 9.68079 11.7531 8.96786 11.7531 8.09425C11.7531 7.22065 11.0147 6.50772 10.1099 6.50772ZM15.0382 8.09425C15.0382 7.43726 15.0444 6.78622 15.0062 6.13042C14.968 5.3687 14.788 4.69266 14.2111 4.13565C13.6329 3.57744 12.934 3.40487 12.1451 3.36797C11.4646 3.33107 10.7903 3.33702 10.1111 3.33702C9.43064 3.33702 8.75635 3.33107 8.07712 3.36797C7.28819 3.40487 6.58801 3.57863 6.01111 4.13565C5.43297 4.69385 5.25422 5.3687 5.21601 6.13042C5.1778 6.78741 5.18396 7.43845 5.18396 8.09425C5.18396 8.75005 5.1778 9.40228 5.21601 10.0581C5.25422 10.8198 5.4342 11.4958 6.01111 12.0529C6.58925 12.6111 7.28819 12.7836 8.07712 12.8205C8.75758 12.8574 9.43187 12.8515 10.1111 12.8515C10.7915 12.8515 11.4658 12.8574 12.1451 12.8205C12.934 12.7836 13.6342 12.6099 14.2111 12.0529C14.7892 11.4947 14.968 10.8198 15.0062 10.0581C15.0456 9.40228 15.0382 8.75124 15.0382 8.09425V8.09425ZM10.1099 10.5354C8.71074 10.5354 7.58158 9.44513 7.58158 8.09425C7.58158 6.74338 8.71074 5.65315 10.1099 5.65315C11.509 5.65315 12.6381 6.74338 12.6381 8.09425C12.6381 9.44513 11.509 10.5354 10.1099 10.5354ZM12.7417 6.12328C12.415 6.12328 12.1512 5.86858 12.1512 5.55318C12.1512 5.23777 12.415 4.98307 12.7417 4.98307C13.0684 4.98307 13.3322 5.23777 13.3322 5.55318C13.3323 5.62807 13.317 5.70225 13.2874 5.77146C13.2578 5.84067 13.2143 5.90355 13.1594 5.95651C13.1046 6.00947 13.0394 6.05146 12.9678 6.08008C12.8961 6.10869 12.8193 6.12338 12.7417 6.12328V6.12328Z" fill="black"/>
</g>
<path d="M18.7423 1.97961V12.7502H16.2516V11.9256H17.7998V2.80424H16.2516V1.97961H18.7423Z" fill="black"/>
<defs>
<clipPath id="clip0_1435_323">
<rect width="11.8477" height="11.8477" fill="white" transform="translate(4 2.15234)"/>
</clipPath>
</defs>
</svg>
